<mxfile host="app.diagrams.net" modified="2024-04-03T10:42:55.620Z" agent="Mozilla/5.0 (Windows NT 10.0; Win64; x64) AppleWebKit/537.36 (KHTML, like Gecko) Chrome/123.0.0.0 Safari/537.36" etag="O1mn66E6ZKEwd-Si1VOR" version="24.2.1" type="device" pages="3">
  <diagram name="Strona-1" id="tmg6tTgybFizqOTmEIRH">
    <mxGraphModel dx="2049" dy="1066" grid="1" gridSize="10" guides="1" tooltips="1" connect="1" arrows="1" fold="1" page="1" pageScale="1" pageWidth="827" pageHeight="1169" math="0" shadow="0">
      <root>
        <mxCell id="0" />
        <mxCell id="1" parent="0" />
        <mxCell id="pFtapPnKjkD_LsAS_JaF-9" value="" style="rounded=0;whiteSpace=wrap;html=1;fontFamily=Helvetica;fontSize=11;fontColor=default;labelBackgroundColor=default;" vertex="1" parent="1">
          <mxGeometry x="160" y="90" width="430" height="350" as="geometry" />
        </mxCell>
        <mxCell id="pFtapPnKjkD_LsAS_JaF-11" style="edgeStyle=none;rounded=0;orthogonalLoop=1;jettySize=auto;html=1;exitX=1;exitY=0.3333333333333333;exitDx=0;exitDy=0;exitPerimeter=0;strokeColor=default;align=center;verticalAlign=middle;fontFamily=Helvetica;fontSize=11;fontColor=default;labelBackgroundColor=default;endArrow=none;endFill=0;" edge="1" parent="1" source="pFtapPnKjkD_LsAS_JaF-1" target="pFtapPnKjkD_LsAS_JaF-10">
          <mxGeometry relative="1" as="geometry" />
        </mxCell>
        <mxCell id="pFtapPnKjkD_LsAS_JaF-16" style="edgeStyle=none;rounded=0;orthogonalLoop=1;jettySize=auto;html=1;entryX=0;entryY=0.5;entryDx=0;entryDy=0;strokeColor=default;align=center;verticalAlign=middle;fontFamily=Helvetica;fontSize=11;fontColor=default;labelBackgroundColor=default;endArrow=none;endFill=0;" edge="1" parent="1" source="pFtapPnKjkD_LsAS_JaF-1" target="pFtapPnKjkD_LsAS_JaF-13">
          <mxGeometry relative="1" as="geometry" />
        </mxCell>
        <mxCell id="pFtapPnKjkD_LsAS_JaF-1" value="działacz&lt;div&gt;&lt;br&gt;&lt;/div&gt;" style="shape=umlActor;verticalLabelPosition=bottom;verticalAlign=top;html=1;outlineConnect=0;" vertex="1" parent="1">
          <mxGeometry x="50" y="180" width="30" height="60" as="geometry" />
        </mxCell>
        <mxCell id="pFtapPnKjkD_LsAS_JaF-14" style="edgeStyle=none;rounded=0;orthogonalLoop=1;jettySize=auto;html=1;entryX=1;entryY=0.5;entryDx=0;entryDy=0;strokeColor=default;align=center;verticalAlign=middle;fontFamily=Helvetica;fontSize=11;fontColor=default;labelBackgroundColor=default;endArrow=none;endFill=0;" edge="1" parent="1" source="pFtapPnKjkD_LsAS_JaF-2" target="pFtapPnKjkD_LsAS_JaF-12">
          <mxGeometry relative="1" as="geometry" />
        </mxCell>
        <mxCell id="pFtapPnKjkD_LsAS_JaF-2" value="student&lt;div&gt;&lt;br&gt;&lt;/div&gt;" style="shape=umlActor;verticalLabelPosition=bottom;verticalAlign=top;html=1;outlineConnect=0;" vertex="1" parent="1">
          <mxGeometry x="680" y="220" width="30" height="60" as="geometry" />
        </mxCell>
        <mxCell id="pFtapPnKjkD_LsAS_JaF-10" value="zarządzaj imprezą" style="ellipse;whiteSpace=wrap;html=1;fontFamily=Helvetica;fontSize=11;fontColor=default;labelBackgroundColor=default;" vertex="1" parent="1">
          <mxGeometry x="190" y="110" width="120" height="80" as="geometry" />
        </mxCell>
        <mxCell id="pFtapPnKjkD_LsAS_JaF-12" value="Zapisz udział" style="ellipse;whiteSpace=wrap;html=1;fontFamily=Helvetica;fontSize=11;fontColor=default;labelBackgroundColor=default;" vertex="1" parent="1">
          <mxGeometry x="420" y="150" width="120" height="80" as="geometry" />
        </mxCell>
        <mxCell id="pFtapPnKjkD_LsAS_JaF-13" value="Generuj raport" style="ellipse;whiteSpace=wrap;html=1;fontFamily=Helvetica;fontSize=11;fontColor=default;labelBackgroundColor=default;" vertex="1" parent="1">
          <mxGeometry x="320" y="310" width="120" height="80" as="geometry" />
        </mxCell>
        <mxCell id="pFtapPnKjkD_LsAS_JaF-15" style="edgeStyle=none;rounded=0;orthogonalLoop=1;jettySize=auto;html=1;entryX=0.987;entryY=0.371;entryDx=0;entryDy=0;entryPerimeter=0;strokeColor=default;align=center;verticalAlign=middle;fontFamily=Helvetica;fontSize=11;fontColor=default;labelBackgroundColor=default;endArrow=none;endFill=0;" edge="1" parent="1" source="pFtapPnKjkD_LsAS_JaF-2" target="pFtapPnKjkD_LsAS_JaF-13">
          <mxGeometry relative="1" as="geometry" />
        </mxCell>
      </root>
    </mxGraphModel>
  </diagram>
  <diagram id="PhgsCVM5QCbPwzDLMQA6" name="Diagram analityczny">
    <mxGraphModel dx="1434" dy="746" grid="1" gridSize="10" guides="1" tooltips="1" connect="1" arrows="1" fold="1" page="1" pageScale="1" pageWidth="827" pageHeight="1169" math="0" shadow="0">
      <root>
        <mxCell id="0" />
        <mxCell id="1" parent="0" />
        <mxCell id="vYXr5K5wwxq-euSJbW_K-1" value="" style="rounded=0;whiteSpace=wrap;html=1;fontFamily=Helvetica;fontSize=11;fontColor=default;labelBackgroundColor=default;" vertex="1" parent="1">
          <mxGeometry x="194" y="10" width="516" height="440" as="geometry" />
        </mxCell>
        <mxCell id="vYXr5K5wwxq-euSJbW_K-2" style="edgeStyle=none;rounded=0;orthogonalLoop=1;jettySize=auto;html=1;exitX=1;exitY=0.3333333333333333;exitDx=0;exitDy=0;exitPerimeter=0;strokeColor=default;align=center;verticalAlign=middle;fontFamily=Helvetica;fontSize=11;fontColor=default;labelBackgroundColor=default;endArrow=none;endFill=0;entryX=0;entryY=0.5;entryDx=0;entryDy=0;entryPerimeter=0;" edge="1" parent="1" source="vYXr5K5wwxq-euSJbW_K-4" target="vYXr5K5wwxq-euSJbW_K-21">
          <mxGeometry relative="1" as="geometry">
            <mxPoint x="229.10493190563056" y="86.14560826304978" as="targetPoint" />
          </mxGeometry>
        </mxCell>
        <mxCell id="vYXr5K5wwxq-euSJbW_K-3" style="edgeStyle=none;rounded=0;orthogonalLoop=1;jettySize=auto;html=1;entryX=-0.01;entryY=0.538;entryDx=0;entryDy=0;strokeColor=default;align=center;verticalAlign=middle;fontFamily=Helvetica;fontSize=11;fontColor=default;labelBackgroundColor=default;endArrow=none;endFill=0;entryPerimeter=0;" edge="1" parent="1" source="vYXr5K5wwxq-euSJbW_K-4" target="vYXr5K5wwxq-euSJbW_K-34">
          <mxGeometry relative="1" as="geometry">
            <mxPoint x="380" y="550" as="targetPoint" />
          </mxGeometry>
        </mxCell>
        <mxCell id="vYXr5K5wwxq-euSJbW_K-4" value="działacz&lt;div&gt;&lt;br&gt;&lt;/div&gt;" style="shape=umlActor;verticalLabelPosition=bottom;verticalAlign=top;html=1;outlineConnect=0;" vertex="1" parent="1">
          <mxGeometry x="84" y="100" width="30" height="60" as="geometry" />
        </mxCell>
        <mxCell id="vYXr5K5wwxq-euSJbW_K-5" style="edgeStyle=none;rounded=0;orthogonalLoop=1;jettySize=auto;html=1;entryX=0.03;entryY=0.538;entryDx=0;entryDy=0;strokeColor=default;align=center;verticalAlign=middle;fontFamily=Helvetica;fontSize=11;fontColor=default;labelBackgroundColor=default;endArrow=none;endFill=0;entryPerimeter=0;" edge="1" parent="1" source="vYXr5K5wwxq-euSJbW_K-6" target="vYXr5K5wwxq-euSJbW_K-27">
          <mxGeometry relative="1" as="geometry">
            <mxPoint x="624" y="210" as="targetPoint" />
          </mxGeometry>
        </mxCell>
        <mxCell id="vYXr5K5wwxq-euSJbW_K-6" value="student&lt;div&gt;&lt;br&gt;&lt;/div&gt;" style="shape=umlActor;verticalLabelPosition=bottom;verticalAlign=top;html=1;outlineConnect=0;" vertex="1" parent="1">
          <mxGeometry x="70" y="280" width="30" height="60" as="geometry" />
        </mxCell>
        <mxCell id="vYXr5K5wwxq-euSJbW_K-10" style="edgeStyle=none;rounded=0;orthogonalLoop=1;jettySize=auto;html=1;entryX=0;entryY=0.5;entryDx=0;entryDy=0;entryPerimeter=0;strokeColor=default;align=center;verticalAlign=middle;fontFamily=Helvetica;fontSize=11;fontColor=default;labelBackgroundColor=default;endArrow=none;endFill=0;" edge="1" parent="1" source="vYXr5K5wwxq-euSJbW_K-6" target="vYXr5K5wwxq-euSJbW_K-34">
          <mxGeometry relative="1" as="geometry">
            <mxPoint x="498.44000000000005" y="539.6800000000001" as="targetPoint" />
          </mxGeometry>
        </mxCell>
        <mxCell id="vYXr5K5wwxq-euSJbW_K-21" value="Zarządzaj imprezą" style="shape=umlBoundary;whiteSpace=wrap;html=1;fontFamily=Helvetica;fontSize=11;labelBackgroundColor=none;fillColor=#d5e8d4;strokeColor=#82b366;" vertex="1" parent="1">
          <mxGeometry x="200" y="20" width="100" height="80" as="geometry" />
        </mxCell>
        <mxCell id="vYXr5K5wwxq-euSJbW_K-22" value="Impreza" style="ellipse;shape=umlEntity;whiteSpace=wrap;html=1;fontFamily=Helvetica;fontSize=11;labelBackgroundColor=none;fillColor=#e1d5e7;strokeColor=#9673a6;" vertex="1" parent="1">
          <mxGeometry x="550" y="20" width="80" height="80" as="geometry" />
        </mxCell>
        <mxCell id="vYXr5K5wwxq-euSJbW_K-25" style="edgeStyle=none;rounded=0;orthogonalLoop=1;jettySize=auto;html=1;entryX=0;entryY=0.5;entryDx=0;entryDy=0;strokeColor=default;align=center;verticalAlign=middle;fontFamily=Helvetica;fontSize=11;fontColor=default;labelBackgroundColor=default;endArrow=none;endFill=0;" edge="1" parent="1" source="vYXr5K5wwxq-euSJbW_K-23" target="vYXr5K5wwxq-euSJbW_K-22">
          <mxGeometry relative="1" as="geometry" />
        </mxCell>
        <mxCell id="vYXr5K5wwxq-euSJbW_K-23" value="C1" style="ellipse;shape=umlControl;whiteSpace=wrap;html=1;fontFamily=Helvetica;fontSize=11;labelBackgroundColor=none;fillColor=#ffe6cc;strokeColor=#d79b00;" vertex="1" parent="1">
          <mxGeometry x="360" y="20" width="70" height="80" as="geometry" />
        </mxCell>
        <mxCell id="vYXr5K5wwxq-euSJbW_K-24" style="edgeStyle=none;rounded=0;orthogonalLoop=1;jettySize=auto;html=1;entryX=0.043;entryY=0.475;entryDx=0;entryDy=0;entryPerimeter=0;strokeColor=default;align=center;verticalAlign=middle;fontFamily=Helvetica;fontSize=11;fontColor=default;labelBackgroundColor=default;endArrow=none;endFill=0;" edge="1" parent="1" source="vYXr5K5wwxq-euSJbW_K-21" target="vYXr5K5wwxq-euSJbW_K-23">
          <mxGeometry relative="1" as="geometry" />
        </mxCell>
        <mxCell id="vYXr5K5wwxq-euSJbW_K-26" value="Zapisy" style="ellipse;shape=umlEntity;whiteSpace=wrap;html=1;fontFamily=Helvetica;fontSize=11;labelBackgroundColor=none;fillColor=#e1d5e7;strokeColor=#9673a6;" vertex="1" parent="1">
          <mxGeometry x="550" y="310" width="80" height="80" as="geometry" />
        </mxCell>
        <mxCell id="vYXr5K5wwxq-euSJbW_K-27" value="Zapisz udział" style="shape=umlBoundary;whiteSpace=wrap;html=1;fontFamily=Helvetica;fontSize=11;labelBackgroundColor=none;fillColor=#d5e8d4;strokeColor=#82b366;" vertex="1" parent="1">
          <mxGeometry x="200" y="320" width="100" height="80" as="geometry" />
        </mxCell>
        <mxCell id="vYXr5K5wwxq-euSJbW_K-32" style="edgeStyle=none;rounded=0;orthogonalLoop=1;jettySize=auto;html=1;entryX=0.013;entryY=0.6;entryDx=0;entryDy=0;strokeColor=default;align=center;verticalAlign=middle;fontFamily=Helvetica;fontSize=11;fontColor=default;labelBackgroundColor=default;endArrow=none;endFill=0;entryPerimeter=0;" edge="1" parent="1" source="vYXr5K5wwxq-euSJbW_K-28" target="vYXr5K5wwxq-euSJbW_K-26">
          <mxGeometry relative="1" as="geometry" />
        </mxCell>
        <mxCell id="vYXr5K5wwxq-euSJbW_K-28" value="C2" style="ellipse;shape=umlControl;whiteSpace=wrap;html=1;fontFamily=Helvetica;fontSize=11;labelBackgroundColor=none;fillColor=#ffe6cc;strokeColor=#d79b00;" vertex="1" parent="1">
          <mxGeometry x="360" y="320" width="70" height="80" as="geometry" />
        </mxCell>
        <mxCell id="vYXr5K5wwxq-euSJbW_K-29" style="edgeStyle=none;rounded=0;orthogonalLoop=1;jettySize=auto;html=1;entryX=0.98;entryY=0.575;entryDx=0;entryDy=0;entryPerimeter=0;strokeColor=default;align=center;verticalAlign=middle;fontFamily=Helvetica;fontSize=11;fontColor=default;labelBackgroundColor=default;endArrow=none;endFill=0;" edge="1" parent="1" source="vYXr5K5wwxq-euSJbW_K-28" target="vYXr5K5wwxq-euSJbW_K-27">
          <mxGeometry relative="1" as="geometry" />
        </mxCell>
        <mxCell id="vYXr5K5wwxq-euSJbW_K-31" style="edgeStyle=none;rounded=0;orthogonalLoop=1;jettySize=auto;html=1;entryX=0.686;entryY=0.175;entryDx=0;entryDy=0;entryPerimeter=0;strokeColor=default;align=center;verticalAlign=middle;fontFamily=Helvetica;fontSize=11;fontColor=default;labelBackgroundColor=default;endArrow=none;endFill=0;" edge="1" parent="1" source="vYXr5K5wwxq-euSJbW_K-22" target="vYXr5K5wwxq-euSJbW_K-28">
          <mxGeometry relative="1" as="geometry" />
        </mxCell>
        <mxCell id="vYXr5K5wwxq-euSJbW_K-34" value="Generuj raport" style="shape=umlBoundary;whiteSpace=wrap;html=1;fontFamily=Helvetica;fontSize=11;labelBackgroundColor=none;fillColor=#d5e8d4;strokeColor=#82b366;" vertex="1" parent="1">
          <mxGeometry x="200" y="160" width="100" height="80" as="geometry" />
        </mxCell>
        <mxCell id="vYXr5K5wwxq-euSJbW_K-37" style="edgeStyle=none;rounded=0;orthogonalLoop=1;jettySize=auto;html=1;entryX=0;entryY=0.5;entryDx=0;entryDy=0;strokeColor=default;align=center;verticalAlign=middle;fontFamily=Helvetica;fontSize=11;fontColor=default;labelBackgroundColor=default;endArrow=none;endFill=0;" edge="1" parent="1" source="vYXr5K5wwxq-euSJbW_K-35" target="vYXr5K5wwxq-euSJbW_K-26">
          <mxGeometry relative="1" as="geometry" />
        </mxCell>
        <mxCell id="vYXr5K5wwxq-euSJbW_K-35" value="C3" style="ellipse;shape=umlControl;whiteSpace=wrap;html=1;fontFamily=Helvetica;fontSize=11;labelBackgroundColor=none;fillColor=#ffe6cc;strokeColor=#d79b00;" vertex="1" parent="1">
          <mxGeometry x="360" y="160" width="70" height="80" as="geometry" />
        </mxCell>
        <mxCell id="vYXr5K5wwxq-euSJbW_K-36" style="edgeStyle=none;rounded=0;orthogonalLoop=1;jettySize=auto;html=1;entryX=0.014;entryY=0.613;entryDx=0;entryDy=0;entryPerimeter=0;strokeColor=default;align=center;verticalAlign=middle;fontFamily=Helvetica;fontSize=11;fontColor=default;labelBackgroundColor=default;endArrow=none;endFill=0;" edge="1" parent="1" source="vYXr5K5wwxq-euSJbW_K-34" target="vYXr5K5wwxq-euSJbW_K-35">
          <mxGeometry relative="1" as="geometry" />
        </mxCell>
        <mxCell id="vYXr5K5wwxq-euSJbW_K-38" style="edgeStyle=none;rounded=0;orthogonalLoop=1;jettySize=auto;html=1;entryX=0.957;entryY=0.338;entryDx=0;entryDy=0;entryPerimeter=0;strokeColor=default;align=center;verticalAlign=middle;fontFamily=Helvetica;fontSize=11;fontColor=default;labelBackgroundColor=default;endArrow=none;endFill=0;" edge="1" parent="1" source="vYXr5K5wwxq-euSJbW_K-22" target="vYXr5K5wwxq-euSJbW_K-35">
          <mxGeometry relative="1" as="geometry" />
        </mxCell>
        <mxCell id="vYXr5K5wwxq-euSJbW_K-40" value="Widok" style="text;html=1;align=center;verticalAlign=middle;whiteSpace=wrap;rounded=0;fontFamily=Helvetica;fontSize=11;fontColor=default;labelBackgroundColor=default;" vertex="1" parent="1">
          <mxGeometry x="220" y="480" width="60" height="30" as="geometry" />
        </mxCell>
        <mxCell id="vYXr5K5wwxq-euSJbW_K-41" value="Kontrolery" style="text;html=1;align=center;verticalAlign=middle;whiteSpace=wrap;rounded=0;fontFamily=Helvetica;fontSize=11;fontColor=default;labelBackgroundColor=default;" vertex="1" parent="1">
          <mxGeometry x="365" y="480" width="60" height="30" as="geometry" />
        </mxCell>
        <mxCell id="vYXr5K5wwxq-euSJbW_K-42" value="Model" style="text;html=1;align=center;verticalAlign=middle;whiteSpace=wrap;rounded=0;fontFamily=Helvetica;fontSize=11;fontColor=default;labelBackgroundColor=default;" vertex="1" parent="1">
          <mxGeometry x="560" y="480" width="60" height="30" as="geometry" />
        </mxCell>
      </root>
    </mxGraphModel>
  </diagram>
  <diagram id="EjREbjizxZNfK3NDdvRr" name="Strona-3">
    <mxGraphModel dx="1434" dy="746" grid="1" gridSize="10" guides="1" tooltips="1" connect="1" arrows="1" fold="1" page="1" pageScale="1" pageWidth="827" pageHeight="1169" math="0" shadow="0">
      <root>
        <mxCell id="0" />
        <mxCell id="1" parent="0" />
        <mxCell id="jO95OPWfiSDqRgRKS3if-1" value="" style="rounded=0;whiteSpace=wrap;html=1;fontFamily=Helvetica;fontSize=11;fontColor=default;labelBackgroundColor=default;" vertex="1" parent="1">
          <mxGeometry x="130" y="30" width="540" height="390" as="geometry" />
        </mxCell>
        <mxCell id="jO95OPWfiSDqRgRKS3if-13" value="Edutuj" style="html=1;shadow=0;dashed=0;shape=mxgraph.bootstrap.rrect;rSize=5;strokeColor=none;strokeWidth=1;fillColor=#33A64C;fontColor=#FFFFFF;whiteSpace=wrap;align=center;verticalAlign=middle;spacingLeft=0;fontStyle=0;fontSize=16;spacing=5;fontFamily=Helvetica;labelBackgroundColor=none;" vertex="1" parent="1">
          <mxGeometry x="145" y="340" width="90" height="40" as="geometry" />
        </mxCell>
        <mxCell id="jO95OPWfiSDqRgRKS3if-14" value="Usuń" style="html=1;shadow=0;dashed=0;shape=mxgraph.bootstrap.rrect;rSize=5;strokeColor=none;strokeWidth=1;fillColor=#DB2843;fontColor=#FFFFFF;whiteSpace=wrap;align=center;verticalAlign=middle;spacingLeft=0;fontStyle=0;fontSize=16;spacing=5;fontFamily=Helvetica;labelBackgroundColor=none;" vertex="1" parent="1">
          <mxGeometry x="275" y="340" width="80" height="40" as="geometry" />
        </mxCell>
        <mxCell id="jO95OPWfiSDqRgRKS3if-15" value="Dodaj" style="html=1;shadow=0;dashed=0;shape=mxgraph.bootstrap.rrect;rSize=5;strokeColor=none;strokeWidth=1;fillColor=#0085FC;fontColor=#FFFFFF;whiteSpace=wrap;align=center;verticalAlign=middle;spacingLeft=0;fontStyle=0;fontSize=16;spacing=5;fontFamily=Helvetica;labelBackgroundColor=none;" vertex="1" parent="1">
          <mxGeometry x="570" y="50" width="80" height="40" as="geometry" />
        </mxCell>
        <mxCell id="jO95OPWfiSDqRgRKS3if-16" value="&lt;b&gt;&lt;font style=&quot;font-size: 20px&quot;&gt;Card title&lt;/font&gt;&lt;/b&gt;&lt;br style=&quot;font-size: 14px&quot;&gt;&lt;br style=&quot;font-size: 14px&quot;&gt;Some quick example text to build on the card title and make up the bulk of the card&#39;s content." style="html=1;shadow=0;dashed=0;shape=mxgraph.bootstrap.rrect;rSize=5;strokeColor=#DFDFDF;html=1;whiteSpace=wrap;fillColor=#ffffff;fontColor=#000000;verticalAlign=bottom;align=left;spacing=20;spacingBottom=50;fontSize=14;fontFamily=Helvetica;labelBackgroundColor=default;" vertex="1" parent="1">
          <mxGeometry x="140" y="40" width="220" height="280" as="geometry" />
        </mxCell>
        <mxCell id="jO95OPWfiSDqRgRKS3if-17" value="Image cap" style="html=1;shadow=0;dashed=0;shape=mxgraph.bootstrap.topButton;rSize=5;perimeter=none;whiteSpace=wrap;fillColor=#868E96;strokeColor=#DFDFDF;fontColor=#DEE2E6;resizeWidth=1;fontSize=18;fontFamily=Helvetica;labelBackgroundColor=default;" vertex="1" parent="jO95OPWfiSDqRgRKS3if-16">
          <mxGeometry width="220" height="180" relative="1" as="geometry" />
        </mxCell>
        <mxCell id="jO95OPWfiSDqRgRKS3if-18" value="Go somewhere" style="html=1;shadow=0;dashed=0;shape=mxgraph.bootstrap.rrect;rSize=5;perimeter=none;whiteSpace=wrap;fillColor=#0085FC;strokeColor=none;fontColor=#ffffff;resizeWidth=1;fontSize=14;fontFamily=Helvetica;labelBackgroundColor=none;" vertex="1" parent="jO95OPWfiSDqRgRKS3if-16">
          <mxGeometry y="1" width="105.6" height="40" relative="1" as="geometry">
            <mxPoint x="20" y="-60" as="offset" />
          </mxGeometry>
        </mxCell>
      </root>
    </mxGraphModel>
  </diagram>
</mxfile>
